<svg xmlns="http://www.w3.org/2000/svg" width="50" height="50" viewBox="0 0 50 50"><g fill="none" fill-rule="evenodd" stroke="#003262" stroke-width="2" transform="translate(1 1)" stroke-linecap="round" stroke-linejoin="round"><path d="M33.6,11.2 L27.2,11.2 C25.8744,11.2 24.8,10.1256 24.8,8.8 C24.8,7.4744 25.8744,6.4 27.2,6.4 L33.6,6.4 C34.9256,6.4 36,7.4744 36,8.8 C36,10.1256 34.9256,11.2 33.6,11.2 L33.6,11.2 Z"></path><polygon points="16 25.6 44.8 25.6 44.8 0 16 0"></polygon><path d="M38.4 32L44.8 48M14.4 38.4C17.0512 38.4 19.2 40.5488 19.2 43.2 19.2 45.8512 17.0512 48 14.4 48 11.7488 48 9.6 45.8512 9.6 43.2 9.6 40.5488 11.7488 38.4 14.4 38.4L14.4 38.4z"></path><polyline points="48 32 11.2 32 6.4 0 0 0"></polyline></g></svg>