<svg xmlns="http://www.w3.org/2000/svg" width="68" height="50" viewBox="0 0 68 50" xmlns:xlink="http://www.w3.org/1999/xlink"><defs><polygon id="a" points="9.231 19.385 28.615 19.385 28.615 4.615 9.231 4.615"></polygon><mask id="b" width="19.385" height="14.769" x="0" y="0" fill="white"><use xlink:href="#a"></use></mask></defs><g fill="none" fill-rule="evenodd" stroke="#003262" transform="translate(1 1)" stroke-linecap="round" opacity=".9"><path stroke-width="2" d="M56.3076923 3.69230769L56.3076923 12.9230769M34.1538462 18.4615385L34.1538462 24 31.3043077 28.56C30.5353846 29.7895385 31.4196923 31.3846154 32.8689231 31.3846154L47.0769231 31.3846154 47.0769231 11.0769231 47.0769231 2.76923077C47.0769231 1.23969231 45.8372308 0 44.3076923 0L39.6923077 0M62.3660308 34.5508615L55.0829538 12.9231692M30.4615385 40.6153846L50.7692308 40.6153846M15.6923077 40.6153846C15.6923077 36.5372308 18.9987692 33.2307692 23.0769231 33.2307692 27.1550769 33.2307692 30.4615385 36.5372308 30.4615385 40.6153846 30.4615385 44.6935385 27.1550769 48 23.0769231 48 18.9987692 48 15.6923077 44.6935385 15.6923077 40.6153846L15.6923077 40.6153846zM10.1538462 18.4615385L34.1538462 18.4615385 10.1538462 18.4615385zM50.7692308 40.6153846C50.7692308 36.5372308 54.0756923 33.2307692 58.1538462 33.2307692 62.232 33.2307692 65.5384615 36.5372308 65.5384615 40.6153846 65.5384615 44.6935385 62.232 48 58.1538462 48 54.0756923 48 50.7692308 44.6935385 50.7692308 40.6153846L50.7692308 40.6153846zM60 12.9230769L53.5384615 12.9230769C50.9898462 12.9230769 48.9230769 10.8563077 48.9230769 8.30769231L48.9230769 8.30769231C48.9230769 5.75907692 50.9898462 3.69230769 53.5384615 3.69230769L60 3.69230769 60 12.9230769 60 12.9230769zM8.30769231 24.9230769L19.3846154 24.9230769M.900014405 30.4615385L19.3846154 30.4615385" stroke-linejoin="round"></path><use stroke-width="4" mask="url(#b)" stroke-linejoin="round" xlink:href="#a"></use><path stroke-width="2" d="M17.5384615,12 L20.3076923,12"></path></g></svg>