<svg xmlns="http://www.w3.org/2000/svg" width="71" height="50" viewBox="0 0 71 50"><g fill="none" fill-rule="evenodd" stroke="#003262" stroke-width="2" transform="translate(1 1)" stroke-linecap="round" opacity=".9" stroke-linejoin="round"><polyline points="43.429 9.143 61.714 9.143 68.571 27.429 68.571 41.143 59.314 41.143"></polyline><path d="M45.7142857,41.1428571 L21.7142857,41.1428571"></path><polyline points="8 41.143 0 41.143 0 0 43.429 0 43.429 26.286"></polyline><polyline points="51.429 17.143 51.429 25.143 59.429 25.143"></polyline><path d="M14.8571429 34.2857143C18.6445714 34.2857143 21.7142857 37.3554286 21.7142857 41.1428571 21.7142857 44.9302857 18.6445714 48 14.8571429 48 11.0697143 48 8 44.9302857 8 41.1428571 8 37.3554286 11.0697143 34.2857143 14.8571429 34.2857143L14.8571429 34.2857143zM52.5714286 34.2857143C56.3588571 34.2857143 59.4285714 37.3554286 59.4285714 41.1428571 59.4285714 44.9302857 56.3588571 48 52.5714286 48 48.784 48 45.7142857 44.9302857 45.7142857 41.1428571 45.7142857 37.3554286 48.784 34.2857143 52.5714286 34.2857143L52.5714286 34.2857143zM22.8571429 11.4285714L22.8571429 25.1428571M16 18.2857143L29.7142857 18.2857143"></path></g></svg>