<svg xmlns="http://www.w3.org/2000/svg" width="51" height="50" viewBox="0 0 51 50"><g fill="none" fill-rule="evenodd" stroke="#003262" stroke-width="2" transform="translate(1 1)" stroke-linecap="round" opacity=".9" stroke-linejoin="round"><path d="M16.4338983,24 L12.1220339,19.2 C11.3084746,19.4440678 10.5762712,19.5254237 9.76271186,19.5254237 C4.39322034,19.5254237 0,15.1322034 0,9.76271186 C0,8.29830508 0.325423729,6.99661017 0.894915254,5.77627119 L6.50847458,11.3898305 L11.3898305,6.50847458 L5.77627119,0.894915254 C6.99661017,0.325423729 8.29830508,0 9.76271186,0 C15.1322034,0 19.5254237,4.39322034 19.5254237,9.76271186 C19.5254237,10.5762712 19.4440678,11.3084746 19.2,12.040678 L24.4067797,16.759322"></path><polyline points="32.38 24.407 47.186 37.831 37.424 47.593 24.407 33.275"></polyline><path d="M42.3050847,11.3898305 L37.4237288,6.50847458 L43.0372881,0.894915254 C41.8169492,0.325423729 40.5152542,0 39.0508475,0 C33.6813559,0 29.2881356,4.39322034 29.2881356,9.76271186 C29.2881356,10.5762712 29.3694915,11.3084746 29.6135593,12.040678 L1.62711864,37.4237288 L11.3898305,47.1864407 L36.7728814,19.2 C37.5050847,19.4440678 38.2372881,19.5254237 39.0508475,19.5254237 C44.420339,19.5254237 48.8135593,15.1322034 48.8135593,9.76271186 C48.8135593,8.29830508 48.4881356,6.99661017 47.9186441,5.77627119 L42.3050847,11.3898305 L42.3050847,11.3898305 Z"></path></g></svg>