<svg xmlns="http://www.w3.org/2000/svg" width="79" height="49" viewBox="0 0 79 49"><g fill="none" fill-rule="evenodd" stroke="#003262" stroke-width="2" stroke-linecap="round" opacity=".9" stroke-linejoin="round"><polyline points="67.2 39.467 77.867 39.467 77.867 22.4 69.333 18.133 62.933 1.067 43.733 1.067 43.733 39.467 50.133 39.467"></polyline><path d="M58.6666667,30.9333333 C63.3792,30.9333333 67.2,34.7541333 67.2,39.4666667 C67.2,44.1792 63.3792,48 58.6666667,48 C53.9541333,48 50.1333333,44.1792 50.1333333,39.4666667 C50.1333333,34.7541333 53.9541333,30.9333333 58.6666667,30.9333333 L58.6666667,30.9333333 Z"></path><polyline points="52.267 9.6 52.267 18.133 60.8 18.133"></polyline><path d="M35.2 1.06666667L1.05000407 1.06666667M35.2 11.7333333L20.2666667 11.7333333M35.2 22.4L26.6666667 22.4"></path></g></svg>